<svg width="54" height="54" viewBox="0 0 54 54" fill="none" xmlns="http://www.w3.org/2000/svg">
<path d="M48.3334 19V48.3333H5.66671V16.3333H16.4667L21.3467 11H35V5.66666H19L14.12 11H5.66671C2.73337 11 0.333374 13.4 0.333374 16.3333V48.3333C0.333374 51.2667 2.73337 53.6667 5.66671 53.6667H48.3334C51.2667 53.6667 53.6667 51.2667 53.6667 48.3333V19H48.3334ZM50.12 16.3067H53.6667C53.64 7.47999 46.4934 0.333328 37.6667 0.333328V3.87999C44.5467 3.87999 50.0934 9.42666 50.12 16.3067ZM43 16.3067H46.5467C46.52 11.4 42.5734 7.45333 37.6667 7.45333V11C40.6267 11 42.9734 13.3733 43 16.3067ZM13.6667 32.3333C13.6667 39.6933 19.64 45.6667 27 45.6667C34.36 45.6667 40.3334 39.6933 40.3334 32.3333C40.3334 24.9733 34.36 19 27 19C19.64 19 13.6667 24.9733 13.6667 32.3333ZM35 32.3333C35 36.7333 31.4 40.3333 27 40.3333C22.6 40.3333 19 36.7333 19 32.3333C19 27.9333 22.6 24.3333 27 24.3333C31.4 24.3333 35 27.9067 35 32.3333Z" fill="#13275F"/>
</svg>
